#!OML:ASF E:/inclinewalkrobotboard/Project1/Captureday1/Session1/subject1.ASF
:FULLY-SPECIFIED
:DEGREES
307
root 0 0 0 -2.2526046612689052 -3.9350840306603048 0.47202480851365364
lowerback 7.508426391714762 1.5359247737445483 -2.5051249515453593
upperback 1.767192928637701 1.9052859677366707 -0.029207151107730533
thorax -2.4133422141665024 1.0006544830097834 1.2732549692557082
lowerneck -9.45598174761372 -5.474625862369122 -6.29463133412295
upperneck 31.320451412223058 -8.60143341425586 5.866232525631501
head 11.696617346220357 -3.919666070524266 1.9410270845708957
rclavicle -1.8411184670755164E-15 1.277156584890096E-15
rhumerus -7.510264879997806 1.0864781352169604 -79.32675390486688
rradius 48.34617120897178
rwrist -20.591263858829187
rhand -41.961548820636764 16.18405587246612
rfingers 7.125019999999939
rthumb -14.801745675601037 -13.22401753199124
lclavicle -5.944630629625386E-15 5.410264018283896E-16
lhumerus -30.423410557424063 11.465715889839457 78.01908480233865
lradius 25.040716866941587
lwrist -4.461795177576477
lhand -24.103445748385695 21.922513408651177
lfingers 7.125019999999951
lthumb 2.377887541897579 51.86010272475939
rfemur -15.745099088737934 7.481495403842104 32.7267090740635
rtibia 38.465938598896884
rfoot -12.57157053401803 -9.617099924124018
rtoes 7.023765085601937
lfemur -24.497219739507138 3.111403310418467 -15.593726111286077
ltibia 54.9641162631095
lfoot -2.666214983973804 -8.303261592633943
ltoes -5.409975737229099
308
root 0 0 0 -2.28148143733896 -3.953393724095919 0.4673313116453373
lowerback 7.463363813454373 1.532857368229192 -2.4932886182629974
upperback 1.7503695212338402 1.9033504642810237 -0.028294530191653178
thorax -2.4038398591609056 0.9993165593035321 1.2685602377484484
lowerneck -9.460875155516211 -5.46341819733406 -6.278429614737692
upperneck 31.362538650218948 -8.593238545972056 5.819974867672075
head 11.709231771117883 -3.9151488697536636 1.9221216348840702
rclavicle -2.1043152999999762E-15 1.2918599444720188E-15
rhumerus -7.680547147636091 1.3307777668610452 -79.35080744982878
rradius 48.68848791076767
rwrist -20.712953415130535
rhand -41.92447568405846 16.02909156498986
rfingers 7.12501999999994
rthumb -14.769598187764302 -13.381718303758001
lclavicle -6.0495573653431696E-15 5.197140914765485E-16
lhumerus -30.370326713331572 11.384285650255404 78.12631517580876
lradius 25.04923028862072
lwrist -4.449191925910648
lhand -24.02078202604915 21.95528577472184
lfingers 7.12501999999995
lthumb 2.4572763988727484 51.89184350180222
rfemur -15.238190385834828 7.528497506113801 32.802365751793886
rtibia 37.56231337830173
rfoot -13.046486544560818 -9.53313473318228
rtoes 7.255259013265297
lfemur -24.57948449965121 3.440609773686358 -15.039931238993411
ltibia 57.596603272649084
lfoot -2.9850608196111565 -7.66744254335101
ltoes -6.137014566289494
309
root 0 0 0 -2.2965808687120566 -3.953452030008935 0.4656889466746736
lowerback 7.425941754352419 1.5360746129907268 -2.483238182514379
upperback 1.7474546010234548 1.9092822469619213 -0.030605085125193
thorax -2.3840006241941523 1.0022776626546628 1.2604373221335563
lowerneck -9.443235033392522 -5.4573073486855534 -6.275899225977857
upperneck 31.367958452933692 -8.5894557807813 5.799564188195216
head 11.710227474381059 -3.9132241311037737 1.9133150015365088
rclavicle -2.3697475523480957E-15 1.319117521062513E-15
rhumerus -8.024442375827682 1.7677264167441682 -79.42237142209743
rradius 49.21789359530898
rwrist -20.882387029391097
rhand -41.88396963013614 15.830849344784074
rfingers 7.125019999999941
rthumb -14.735099935053421 -13.584280546257196
lclavicle -6.170526955547425E-15 5.452580086440018E-16
lhumerus -30.35895320925643 11.328762644903126 78.16731535012417
lradius 25.039588186200334
lwrist -4.461665434229264
lhand -23.95685362593592 21.985593733876364
lfingers 7.12501999999995
lthumb 2.5187825043506846 51.92124313062568
rfemur -13.353367007917035 7.669598925859028 32.94578970078824
rtibia 35.753336023835814
rfoot -14.179087347593981 -9.505721509941392
rtoes 7.193237442391313
lfemur -25.064393882758406 3.6976188798947263 -14.404762724701127
ltibia 59.46943821266397
lfoot -3.5221070484554655 -6.8097743929640675
ltoes -6.812126755696539
310
root 0 0 0 -2.294149829341896 -3.9382175302499727 0.46806122150789414
lowerback 7.405021447387704 1.5444103855914686 -2.478222328697296
upperback 1.7608096510957965 1.9209799435829655 -0.035961699601932295
thorax -2.3566726767848687 1.0085747912262004 1.2509638875137825
lowerneck -9.400608210689853 -5.4584901090525575 -6.289237743668339
upperneck 31.331690778858192 -8.59240199152871 5.811989824992214
head 11.697461741789446 -3.9151332182291596 1.9173208076086996
rclavicle -2.637710679163323E-15 1.3809917827620472E-15
rhumerus -8.482958845395547 2.3328674363237933 -79.52580446801981
rradius 49.87752133394446
rwrist -21.06980987109785
rhand -41.84653423954033 15.615149141267285
rfingers 7.125019999999943
rthumb -14.703812859992423 -13.804994775776178
lclavicle -6.330279896827638E-15 6.483439866808086E-16
lhumerus -30.389367108840673 11.305882952961014 78.13865072257691
lradius 25.01541968720736
lwrist -4.494487527462313
lhand -23.921487343183756 22.00957858843044
lfingers 7.12501999999995
lthumb 2.5528767543256476 51.9445265993207
rfemur -10.131102450311609 7.870979499232467 33.21944097903833
rtibia 33.30706379615585
rfoot -15.858948674097814 -9.479473726480887
rtoes 6.8395863193674415
lfemur -25.76609221466449 3.8215764085302926 -13.881033754391286
ltibia 60.21976978967102
lfoot -4.100233296854824 -5.985983645044568
ltoes -7.298581458642373
311
root 0 0 0 -2.274323812521636 -3.9109400061636386 0.47457031264454647
lowerback 7.40327851515473 1.5567499044329223 -2.479771955663352
upperback 1.7897851435397478 1.936722119389642 -0.04405356886820755
thorax -2.3241762589638366 1.0173472248427216 1.2413962595116121
lowerneck -9.33479633900053 -5.467623960921966 -6.318542499050754
upperneck 31.25741023186007 -8.603030933189139 5.857473059391366
head 11.671970214845869 -3.9212998623295796 1.934169977921033
rclavicle -2.8984881093749076E-15 1.495159466025497E-15
rhumerus -8.980308841928466 2.9400897349178283 -79.64398391790013
rradius 50.57819536536685
rwrist -21.244972185458657
rhand -41.82155779150414 15.414091785876277
rfingers 7.125019999999945
rthumb -14.684323664518658 -14.010598136584125
lclavicle -6.5229000650263585E-15 8.417111933047328E-16
lhumerus -30.45658503131503 11.321183193407117 78.04375339026359
lradius 24.978609242654947
lwrist -4.5460330585913455
lhand -23.918163641299017 22.02316363683373
lfingers 7.12501999999995
lthumb 2.5561516949585803 51.9576949618064
rfemur -6.083837169780086 8.077139758056278 33.65944200061786
rtibia 30.754886358682683
rfoot -17.75396048267326 -9.389928223375211
rtoes 6.272248284120423
lfemur -26.66655524785841 3.761908493907722 -13.512243827905785
ltibia 59.575819018352554
lfoot -4.608469143214195 -5.267929916002005
ltoes -7.536365087674901
312
root 0 0 0 -2.2411017158127544 -3.8746889128851465 0.4843798532154923
lowerback 7.417164354174258 1.5720652563737376 -2.487327422407442
upperback 1.8305158910917791 1.955290543609048 -0.054286320199572136
thorax -2.288515981185062 1.0278802938491163 1.2321592585717709
lowerneck -9.252687104930198 -5.483458699357347 -6.36101633891392
upperneck 31.157751981813984 -8.620408756766743 5.928826116948215
head 11.63810373989666 -3.931077085596548 1.9610153231384928
rclavicle -3.0934595030347066E-15 1.6363471049471155E-15
rhumerus -9.443138107380793 3.499632490099997 -79.76083573210103
rradius 51.20823877015659
rwrist -21.383986622457954
rhand -41.81400275682772 15.260537946419822
rfingers 7.125019999999948
rthumb -14.681036150817729 -14.167534072219278
lclavicle -6.69034447716866E-15 1.0797384827320674E-15
lhumerus -30.55157992805995 11.376075005211801 77.8934778000239
lradius 24.931797976041608
lwrist -4.613206248524046
lhand -23.94668117977361 22.022679744772443
lfingers 7.125019999999951
lthumb 2.5288000956713272 51.95718055939086
rfemur -2.3171108487424803 8.244113866716237 34.1287709639745
rtibia 28.654036473991432
rfoot -19.385420110805796 -9.268540843560992
rtoes 5.661352867111161
lfemur -27.85734008251875 3.49731767271145 -13.232980859630931
ltibia 57.4371413677308
lfoot -5.043261896342466 -4.570172580459955
ltoes -7.540057259928924
313
root 0 0 0 -2.2018989133983897 -3.8340721227989403 0.49552845518565164
lowerback 7.439958841082059 1.5885078461164244 -2.4986497164200068
upperback 1.8752707600179361 1.974705646698947 -0.06530449853635845
thorax -2.2539359937548094 1.0389453416511307 1.2237141528449698
lowerneck -9.168624568080176 -5.502845750399034 -6.409684695844579
upperneck 31.05258291847449 -8.641380584653408 6.0115705506354296
head 11.60290652975465 -3.9426034560689383 1.9922817198133502
rclavicle -3.143657496845511E-15 1.7419780657218636E-15
rhumerus -9.809525669005517 3.9301355655826438 -79.8608141438096
rradius 51.65544023895234
rwrist -21.47267860291974
rhand -41.81954542305602 15.17948445100208
rfingers 7.1250199999999495
rthumb -14.68921787778513 -14.250795416943017
lclavicle -6.760944773433319E-15 1.276301292462925E-15
lhumerus -30.661764127163526 11.465102646091928 77.70705369075027
lradius 24.881426907996293
lwrist -4.686493464286359
lhand -24.00569910762792 22.006240639775395
lfingers 7.125019999999953
lthumb 2.4721583625945827 51.94118448954567
rfemur 0.23357330088829675 8.357082132214405 34.44136382215448
rtibia 27.30824510701656
rfoot -20.41686324589321 -9.19513638288033
rtoes 5.144024789919829
lfemur -29.26512846592188 3.0514146221035805 -13.004517399242253
ltibia 54.022197056926636
lfoot -5.398868486408233 -3.886599796564111
ltoes -7.343971462059271
